<?xml version="1.0" encoding="utf-8"?>
<!-- Generator: Adobe Illustrator 16.0.0, SVG Export Plug-In . SVG Version: 6.00 Build 0)  -->
<!DOCTYPE svg PUBLIC "-//W3C//DTD SVG 1.1//EN" "http://www.w3.org/Graphics/SVG/1.1/DTD/svg11.dtd">
<svg version="1.1"
	 id="svg2" xmlns:dc="http://purl.org/dc/elements/1.1/" xmlns:sodipodi="http://sodipodi.sourceforge.net/DTD/sodipodi-0.dtd" xmlns:rdf="http://www.w3.org/1999/02/22-rdf-syntax-ns#" xmlns:inkscape="http://www.inkscape.org/namespaces/inkscape" xmlns:svg="http://www.w3.org/2000/svg" xmlns:cc="http://creativecommons.org/ns#" sodipodi:docname="logocolor.svg" inkscape:version="0.91 r13725"
	 xmlns="http://www.w3.org/2000/svg" xmlns:xlink="http://www.w3.org/1999/xlink" x="0px" y="0px" width="72px" height="94.463px"
	 viewBox="0 0 72 94.463" enable-background="new 0 0 72 94.463" xml:space="preserve">
<sodipodi:namedview  fit-margin-top="0" bordercolor="#666666" pagecolor="#ffffff" inkscape:zoom="3.959798" inkscape:cy="50.884283" showgrid="true" fit-margin-left="0" borderopacity="1.0" inkscape:cx="15.917906" id="base" inkscape:current-layer="layer1" fit-margin-right="0" inkscape:pageopacity="0.0" inkscape:snap-bbox="true" inkscape:document-units="px" inkscape:window-y="164" inkscape:bbox-nodes="true" inkscape:window-maximized="1" inkscape:pageshadow="2" inkscape:window-width="1600" fit-margin-bottom="0" inkscape:window-x="-8" inkscape:window-height="837">
	<inkscape:grid  type="xygrid" originx="-160" originy="-541.92186" id="grid4140"></inkscape:grid>
</sodipodi:namedview>
<g id="layer1" transform="translate(-160,-392.36133)" inkscape:label="Layer 1" inkscape:groupmode="layer">
	<g enable-background="new    ">
		<path fill="#A67459" d="M174.505,486.523h-2.584l-9.261-14.343c-0.234-0.359-0.426-0.735-0.577-1.129h-0.075
			c0.067,0.385,0.101,1.209,0.101,2.472v13H160v-17.994h2.735l9.01,14.117c0.376,0.585,0.619,0.986,0.728,1.204h0.05
			c-0.083-0.519-0.125-1.401-0.125-2.647v-12.674h2.108V486.523z"/>
	</g>
	<g enable-background="new    ">
		<path fill="#694338" d="M184.317,486.824c-1.899,0-3.416-0.6-4.549-1.8c-1.134-1.201-1.7-2.792-1.7-4.775
			c0-2.158,0.59-3.844,1.769-5.057c1.18-1.213,2.773-1.819,4.781-1.819c1.916,0,3.411,0.59,4.486,1.77
			c1.075,1.18,1.612,2.814,1.612,4.906c0,2.05-0.58,3.691-1.738,4.925C187.82,486.208,186.266,486.824,184.317,486.824z
			 M184.468,475.104c-1.322,0-2.367,0.45-3.137,1.35c-0.77,0.899-1.155,2.139-1.155,3.72c0,1.523,0.389,2.724,1.167,3.602
			c0.778,0.878,1.819,1.317,3.125,1.317c1.33,0,2.353-0.431,3.068-1.292c0.715-0.861,1.073-2.087,1.073-3.677
			c0-1.606-0.358-2.844-1.073-3.714C186.821,475.54,185.798,475.104,184.468,475.104z"/>
		<path fill="#694338" d="M204.971,486.523h-2.057v-2.184h-0.051c-0.953,1.656-2.426,2.484-4.417,2.484
			c-1.614,0-2.905-0.574-3.871-1.725s-1.449-2.717-1.449-4.699c0-2.125,0.535-3.827,1.606-5.107s2.497-1.92,4.279-1.92
			c1.765,0,3.05,0.694,3.853,2.083h0.051v-7.955h2.057V486.523z M202.914,480.714v-1.895c0-1.037-0.344-1.916-1.029-2.636
			c-0.687-0.719-1.557-1.079-2.61-1.079c-1.255,0-2.241,0.461-2.961,1.381c-0.719,0.92-1.079,2.191-1.079,3.814
			c0,1.48,0.345,2.649,1.035,3.507s1.617,1.286,2.78,1.286c1.146,0,2.076-0.414,2.791-1.242
			C202.556,483.022,202.914,481.977,202.914,480.714z"/>
		<path fill="#694338" d="M219.465,480.613h-9.072c0.033,1.431,0.418,2.535,1.154,3.313c0.735,0.778,1.748,1.167,3.036,1.167
			c1.447,0,2.777-0.477,3.99-1.431v1.933c-1.13,0.82-2.622,1.229-4.479,1.229c-1.815,0-3.242-0.583-4.279-1.75
			s-1.556-2.809-1.556-4.925c0-2,0.566-3.629,1.7-4.888c1.133-1.259,2.541-1.889,4.223-1.889s2.982,0.544,3.902,1.632
			c0.92,1.087,1.381,2.597,1.381,4.529V480.613z M217.355,478.869c-0.008-1.188-0.295-2.112-0.859-2.773
			c-0.564-0.66-1.349-0.991-2.353-0.991c-0.97,0-1.794,0.348-2.472,1.042s-1.096,1.602-1.255,2.723H217.355z"/>
		<path fill="#694338" d="M231.962,473.675l-4.316,6.499l4.241,6.35h-2.396l-2.522-4.166c-0.159-0.259-0.347-0.585-0.564-0.979
			h-0.05c-0.043,0.075-0.238,0.401-0.59,0.979l-2.572,4.166h-2.372l4.38-6.299l-4.191-6.55h2.396l2.484,4.392
			c0.184,0.326,0.363,0.66,0.539,1.004h0.051l3.213-5.396H231.962z"/>
	</g>
	<path id="rect4142" inkscape:connector-curvature="0" fill="#694338" d="M160,392.362v72h72v-72H160z M200.575,395.588
		c9.065,0.347,17.666,4.104,24.081,10.519l-4.967,4.967c1.129,1.125,1.766,2.652,1.767,4.246c0,3.313-2.687,6-6,6l0,0
		c-1.595-0.002-3.122-0.637-4.247-1.766l-37.464,37.464c-9.095-9.096-12.647-22.352-9.318-34.773
		c3.329-12.423,13.033-22.127,25.456-25.455C193.367,395.856,196.971,395.45,200.575,395.588z M211.209,419.554l8.48-8.48
		c-1.123-1.121-2.646-1.753-4.233-1.754c-3.313,0-6,2.686-6,6l0,0C209.457,416.906,210.088,418.43,211.209,419.554z"/>
</g>
</svg>
